<?xml version="1.0" encoding="UTF-8" standalone="no"?>
<svg
   xmlns="http://www.w3.org/2000/svg"
   height="62"
   width="60"
   id="svg2"
   xml:space="preserve"
   viewBox="0 0 60 62"
   y="0px"
   x="0px"
   version="1.1"><g
     transform="translate(-2,-1)"
     id="g4"><path
       id="path6"
       d="m 58.651,25 c -0.607,0 -1.203,0.165 -1.724,0.478 -2.214,1.328 -4.587,2.302 -7.07,2.93 C 49.368,21.52 47.564,14.893 44.472,8.709 42.095,3.954 37.316,1 32,1 26.684,1 21.905,3.954 19.528,8.708 16.436,14.893 14.632,21.519 14.143,28.407 11.659,27.779 9.287,26.805 7.073,25.477 6.552,25.165 5.956,25 5.349,25 3.502,25 2,26.502 2,28.349 l 0,0.152 c 0,0.473 0.097,0.93 0.289,1.36 l 0.304,0.684 c 2.336,5.257 6.037,9.806 10.701,13.172 -0.141,0.837 -0.295,1.672 -0.477,2.498 L 7.547,60 9,60 c 1.016,0 2.019,0.65 3.08,1.339 1.2,0.778 2.56,1.661 4.168,1.661 1.766,0 2.659,-1.021 3.377,-1.842 C 20.291,60.397 20.676,60 21.496,60 c 0.82,0 1.206,0.397 1.871,1.158 0.717,0.821 1.611,1.842 3.377,1.842 1.767,0 2.66,-1.021 3.377,-1.842 C 30.787,60.397 31.173,60 31.993,60 c 0.819,0 1.205,0.397 1.87,1.158 C 34.581,61.979 35.474,63 37.24,63 39.007,63 39.9,61.979 40.618,61.158 41.284,60.397 41.67,60 42.491,60 c 0.822,0 1.208,0.397 1.875,1.159 0.718,0.82 1.612,1.841 3.379,1.841 1.609,0 2.971,-0.883 4.171,-1.661 C 52.979,60.65 53.982,60 55,60 l 1.453,0 -5.269,-13.784 c -0.182,-0.826 -0.336,-1.661 -0.477,-2.498 4.664,-3.366 8.365,-7.915 10.701,-13.172 l 0.303,-0.683 C 61.903,29.432 62,28.974 62,28.501 l 0,-0.152 C 62,26.502 60.498,25 58.651,25 Z M 60,28.501 c 0,0.19 -0.039,0.374 -0.117,0.548 l -0.304,0.684 c -2.049,4.611 -5.224,8.632 -9.202,11.719 -0.103,-0.841 -0.192,-1.682 -0.251,-2.523 l -1.995,0.143 c 0.182,2.563 0.558,5.137 1.116,7.649 l 4.38,11.487 c -1.032,0.308 -1.955,0.906 -2.798,1.453 C 49.766,60.35 48.763,61 47.745,61 46.923,61 46.537,60.603 45.87,59.841 45.152,59.021 44.258,58 42.491,58 40.724,58 39.831,59.021 39.113,59.842 38.446,60.603 38.061,61 37.24,61 36.42,61 36.035,60.603 35.369,59.842 34.651,59.021 33.759,58 31.993,58 30.227,58 29.334,59.021 28.616,59.842 27.95,60.603 27.564,61 26.744,61 25.924,61 25.538,60.603 24.873,59.842 24.155,59.021 23.262,58 21.496,58 19.73,58 18.837,59.021 18.12,59.842 17.454,60.603 17.068,61 16.248,61 c -1.016,0 -2.019,-0.65 -3.08,-1.339 -0.843,-0.547 -1.765,-1.145 -2.795,-1.452 l 4.338,-11.348 0.042,-0.141 c 0.558,-2.513 0.934,-5.086 1.116,-7.649 l -1.995,-0.143 c -0.06,0.841 -0.149,1.683 -0.251,2.523 C 9.645,38.364 6.47,34.343 4.421,29.732 L 4.117,29.048 C 4.039,28.875 4,28.691 4,28.501 L 4,28.349 C 4,27.605 4.605,27 5.349,27 c 0.245,0 0.485,0.066 0.694,0.192 3.057,1.833 6.388,3.06 9.902,3.646 C 16.591,30.945 17.25,31 17.902,31 L 19,31 19,29 17.902,29 C 17.359,29 16.811,28.955 16.274,28.865 16.219,28.856 16.167,28.84 16.113,28.83 16.554,22.103 18.301,15.634 21.317,9.602 23.353,5.53 27.446,3 32,3 c 4.554,0 8.647,2.53 10.683,6.603 3.016,6.032 4.763,12.501 5.204,19.228 -0.054,0.009 -0.107,0.026 -0.161,0.035 C 47.188,28.955 46.641,29 46.098,29 L 45,29 l 0,2 1.098,0 c 0.653,0 1.311,-0.055 1.957,-0.162 3.514,-0.585 6.845,-1.812 9.902,-3.646 C 58.166,27.066 58.406,27 58.651,27 59.395,27 60,27.605 60,28.349 l 0,0.152 z" /><path
       id="path8"
       d="m 38.75,35 c -0.698,0 -1.391,0.23 -1.95,0.65 L 35,37 c -1.719,1.289 -4.281,1.289 -6,0 L 27.2,35.65 C 26.641,35.23 25.948,35 25.25,35 23.458,35 22,36.458 22,38.25 L 22,42 c 0,5.514 4.486,10 10,10 5.514,0 10,-4.486 10,-10 l 0,-3.75 C 42,36.458 40.542,35 38.75,35 Z m -1.255,2.629 -0.903,3.161 -1.245,-1.659 c 0.295,-0.157 0.584,-0.328 0.853,-0.53 l 1.295,-0.972 z M 27.8,38.6 c 0.269,0.202 0.558,0.374 0.853,0.53 L 27.408,40.789 26.505,37.629 27.8,38.6 Z M 40,42 c 0,4.411 -3.589,8 -8,8 -4.411,0 -8,-3.589 -8,-8 l 0,-3.75 c 0,-0.338 0.137,-0.642 0.355,-0.867 l 2.237,7.828 4.047,-5.397 c 0.898,0.168 1.823,0.168 2.721,0 l 4.047,5.397 2.237,-7.828 C 39.863,37.608 40,37.912 40,38.25 L 40,42 Z" /><path
       id="path10"
       d="m 25.536,28 c 1.211,0 2.351,-0.472 3.207,-1.329 L 30.752,24.662 21,20.483 21,23.464 C 21,25.965 23.035,28 25.536,28 Z m 1.71,-2.664 C 26.778,25.765 26.175,26 25.536,26 24.155,26 23.029,24.891 23.001,23.517 l 4.245,1.819 z" /><path
       id="path12"
       d="M 35.257,26.671 C 36.114,27.528 37.253,28 38.464,28 40.965,28 43,25.965 43,23.464 l 0,-2.981 -9.751,4.179 2.008,2.009 z M 41,23.517 C 40.972,24.891 39.845,26 38.464,26 37.825,26 37.222,25.765 36.754,25.336 L 41,23.517 Z" /></g></svg>