<svg
   xmlns="http://www.w3.org/2000/svg"
   height="62"
   width="62"
   id="svg2"
   xml:space="preserve"
   viewBox="0 0 62 62"
   y="0px"
   x="0px"
   version="1.1"><g
     transform="translate(-1,-1)"
     id="g4"><path
       id="path6"
       d="m 50,25 c 0,-3.671 -1.099,-7.202 -3.177,-10.215 l -1.646,1.137 C 47.023,18.598 48,21.737 48,25 c 0,4.135 -1.579,8.059 -4.447,11.048 -0.872,0.909 -1.589,1.915 -2.156,2.992 C 41.266,39.023 41.136,39 41,39 l -4,0 0,2 4,0 c 0.552,0 1,0.448 1,1 0,0.552 -0.448,1 -1,1 l -2,0 0,2 2,0 c 0.552,0 1,0.448 1,1 0,0.552 -0.448,1 -1,1 l -4,0 0,2 1.914,0 C 37.667,51.149 35.481,52.607 33,52.921 L 33,49 l 2,0 0,-2 -4,0 0,-2 3,0 1,0 2,0 0,-2 -2,0 0,-4 -2,0 0,-4.053 c 2.472,-0.249 4.782,-1.412 6.453,-3.28 l -1.49,-1.334 C 36.446,32.028 34.273,33 32,33 c -4.411,0 -8,-3.589 -8,-8 0,-4.411 3.589,-8 8,-8 2.272,0 4.446,0.972 5.963,2.667 l 1.49,-1.334 C 37.558,16.215 34.841,15 32,15 c -0.466,0 -0.922,0.043 -1.372,0.105 l -0.432,-1.971 c 1.516,-0.23 3.091,-0.164 4.574,0.187 l 0.459,-1.947 c -2.102,-0.496 -4.357,-0.496 -6.459,0 l -0.958,0.227 0.872,3.976 C 24.798,16.949 22,20.65 22,25 c 0,5.176 3.954,9.446 9,9.949 l 0,4.051 -2,0 0,2 4,0 0,2 -7,0 0,2 3,0 0,4 2,0 0,3.935 c -0.889,-0.11 -1.745,-0.363 -2.555,-0.766 L 27.554,53.96 C 28.944,54.65 30.439,55 32,55 35.996,55 39.596,52.609 41.172,48.983 42.745,48.892 44,47.596 44,46 44,45.229 43.699,44.532 43.22,44 43.7,43.468 44,42.771 44,42 44,41.205 43.684,40.486 43.177,39.948 43.655,39.046 44.26,38.199 44.996,37.432 48.223,34.068 50,29.653 50,25 Z" /><path
       id="path8"
       d="m 22,46 c 0,-0.552 0.448,-1 1,-1 l 1,0 0,-2 -1,0 c -0.552,0 -1,-0.448 -1,-1 0,-0.552 0.448,-1 1,-1 l 4,0 0,-2 -4,0 c -0.128,0 -0.251,0.022 -0.375,0.038 C 22.086,37.984 21.413,37.03 20.6,36.206 17.864,33.43 16.296,29.823 16.055,26 l 1.981,0 c 0.342,4.831 3.15,9.142 7.501,11.412 l 0.926,-1.773 C 22.477,33.559 20,29.482 20,25 20,20.518 22.477,16.441 26.463,14.361 L 25.537,12.588 C 21.186,14.858 18.378,19.169 18.036,24 l -1.98,0 c 0.023,-0.381 0.034,-0.762 0.084,-1.145 0.933,-7.173 6.833,-12.958 14.031,-13.754 2.938,-0.326 5.831,0.16 8.427,1.335 l -1.985,3.442 0.925,0.482 C 41.523,16.441 44,20.518 44,25 c 0,1.179 -0.175,2.328 -0.5,3.421 l -1.812,-0.93 C 41.895,26.681 42,25.846 42,25 42,23.439 41.65,21.944 40.96,20.555 l -1.791,0.891 c 0.403,0.809 0.656,1.666 0.766,2.555 l -2.025,0 c -0.478,-2.833 -2.942,-5 -5.91,-5 -3.309,0 -6,2.691 -6,6 0,3.309 2.691,6 6,6 2.967,0 5.431,-2.167 5.91,-5 l 2.021,0 c -0.071,0.568 -0.195,1.126 -0.386,1.667 l -0.29,0.824 3.511,1.801 c -1.107,2.248 -2.91,4.136 -5.229,5.346 l 0.926,1.773 C 43.112,34.986 46,30.23 46,25 46,20.118 43.484,15.649 39.368,13.104 l 1.001,-1.736 c 1.048,0.645 2.032,1.409 2.924,2.298 L 44.705,12.25 C 40.818,8.378 35.44,6.51 29.949,7.113 21.847,8.009 15.205,14.522 14.156,22.597 c -0.725,5.569 1.105,11.042 5.02,15.013 0.665,0.674 1.218,1.456 1.661,2.32 C 20.322,40.47 20,41.197 20,42 c 0,0.771 0.301,1.468 0.78,2 -0.48,0.532 -0.78,1.229 -0.78,2 0,1.598 1.259,2.896 2.835,2.983 0.424,0.977 0.992,1.88 1.711,2.684 l 1.49,-1.334 C 25.666,49.919 25.346,49.473 25.072,49 l 1.928,0 0,-2 -4,0 c -0.552,0 -1,-0.448 -1,-1 z M 32,29 c -2.206,0 -4,-1.794 -4,-4 0,-2.206 1.794,-4 4,-4 2.206,0 4,1.794 4,4 0,2.206 -1.794,4 -4,4 z" /><polygon
       id="polygon10"
       points="1,61 1,63 19.515,63 24,56.72 24,61 26,61 26,52.847 17.858,54.01 18.142,55.99 22.51,55.366 18.485,61 " /><polygon
       id="polygon12"
       points="53.511,12 47,12 47,14 54.489,14 61,5.629 61,10 63,10 63,1.847 54.858,3.01 55.142,4.99 59.441,4.376 " /><rect
       id="rect14"
       height="2"
       width="2"
       y="25"
       x="56" /><rect
       id="rect16"
       height="2"
       width="2"
       y="29"
       x="56" /><rect
       id="rect18"
       height="2"
       width="2"
       y="27"
       x="58" /><rect
       id="rect20"
       height="2"
       width="2"
       y="27"
       x="54" /><rect
       id="rect22"
       height="2"
       width="2"
       y="1"
       x="16" /><rect
       id="rect24"
       height="2"
       width="2"
       y="5"
       x="16" /><rect
       id="rect26"
       height="2"
       width="2"
       y="3"
       x="18" /><rect
       id="rect28"
       height="2"
       width="2"
       y="3"
       x="14" /><rect
       id="rect30"
       height="2"
       width="2"
       y="41"
       x="51" /><rect
       id="rect32"
       height="2"
       width="2"
       y="45"
       x="51" /><rect
       id="rect34"
       height="2"
       width="2"
       y="43"
       x="53" /><rect
       id="rect36"
       height="2"
       width="2"
       y="43"
       x="49" /><rect
       id="rect38"
       height="2"
       width="2"
       y="31"
       x="8" /><rect
       id="rect40"
       height="2"
       width="2"
       y="35"
       x="8" /><rect
       id="rect42"
       height="2"
       width="2"
       y="33"
       x="10" /><rect
       id="rect44"
       height="2"
       width="2"
       y="33"
       x="6" /><rect
       id="rect46"
       height="2"
       width="2"
       y="16"
       x="3" /><rect
       id="rect48"
       height="2"
       width="2"
       y="20"
       x="3" /><rect
       id="rect50"
       height="2"
       width="2"
       y="18"
       x="5" /><rect
       id="rect52"
       height="2"
       width="2"
       y="18"
       x="1" /></g></svg>