<?xml version="1.0" encoding="UTF-8" standalone="no"?>
<svg
   xmlns="http://www.w3.org/2000/svg"
   height="62"
   width="62"
   id="svg2"
   xml:space="preserve"
   viewBox="0 0 62 62"
   y="0px"
   x="0px"
   version="1.1"><g
     transform="translate(-1,-1)"
     id="g4"><path
       id="path6"
       d="M 59.507,61 38.106,31.816 C 37.73,31.306 37.128,31 36.493,31 L 36,31 l 0,-11 6,0 c 2.757,0 5,-2.243 5,-5 0,-2.104 -1.307,-3.921 -3.194,-4.646 C 43.934,9.912 44,9.456 44,9 44,6.243 41.757,4 39,4 38.426,4 37.862,4.098 37.329,4.288 36.322,2.307 34.271,1 32,1 29.729,1 27.678,2.307 26.671,4.288 26.138,4.098 25.574,4 25,4 22.243,4 20,6.243 20,9 20,9.456 20.066,9.912 20.194,10.354 18.307,11.079 17,12.896 17,15 c 0,2.757 2.243,5 5,5 l 6,0 0,11 -0.493,0 c -0.635,0 -1.237,0.306 -1.613,0.816 L 4.493,61 1,61 l 0,2 62,0 0,-2 -3.493,0 z M 26,12 l 0,2 c 1.103,0 2,0.897 2,2 l 0,2 -6,0 c -1.654,0 -3,-1.346 -3,-3 0,-1.526 1.153,-2.801 2.684,-2.963 l 1.557,-0.165 -0.804,-1.343 C 22.146,10.046 22,9.531 22,9 c 0,-1.654 1.346,-3 3,-3 0.588,0 1.158,0.173 1.65,0.498 l 1.147,0.761 0.368,-1.325 C 28.647,4.206 30.224,3 32,3 c 1.776,0 3.353,1.206 3.834,2.934 l 0.368,1.325 1.147,-0.761 C 37.842,6.173 38.412,6 39,6 c 1.654,0 3,1.346 3,3 0,0.531 -0.146,1.046 -0.437,1.529 l -0.804,1.343 1.557,0.165 C 43.847,12.199 45,13.474 45,15 c 0,1.654 -1.346,3 -3,3 l -6,0 0,-2 c 0,-1.103 0.897,-2 2,-2 l 0,-2 c -2.206,0 -4,1.794 -4,4 l 0,15 -4,0 0,-15 c 0,-2.206 -1.794,-4 -4,-4 z m 1.507,21 8.986,0 5.316,7.249 C 40.746,40.711 40,41.769 40,43 l 0,3 c 0,0.552 -0.448,1 -1,1 -0.552,0 -1,-0.448 -1,-1 l 0,-8 c 0,-1.654 -1.346,-3 -3,-3 -1.654,0 -3,1.346 -3,3 l 0,15 c 0,0.552 -0.448,1 -1,1 -0.552,0 -1,-0.448 -1,-1 l 0,-10 c 0,-1.654 -1.346,-3 -3,-3 -1.654,0 -3,1.346 -3,3 l 0,5 c 0,0.552 -0.448,1 -1,1 -0.552,0 -1,-0.448 -1,-1 L 22,40.509 27.507,33 Z M 8.49,58.932 l 5.166,-0.861 1.636,1.636 1.414,-1.414 -1.137,-1.137 2.33,-1.553 1.081,-5.406 -1.961,-0.393 -0.919,4.594 -2.477,1.651 -3.44,0.573 L 20,43.237 20,48 c 0,1.654 1.346,3 3,3 1.654,0 3,-1.346 3,-3 l 0,-5 c 0,-0.552 0.448,-1 1,-1 0.552,0 1,0.448 1,1 l 0,10 c 0,1.654 1.346,3 3,3 1.654,0 3,-1.346 3,-3 l 0,-15 c 0,-0.552 0.448,-1 1,-1 0.552,0 1,0.448 1,1 l 0,8 c 0,1.654 1.346,3 3,3 1.654,0 3,-1.346 3,-3 l 0,-3 c 0,-0.583 0.542,-1.036 1.099,-0.992 L 57.026,61 49.78,61 49.077,58.186 50.831,55.554 49.167,54.445 47.772,56.537 44,53.52 44,50 l -2,0 0,2.72 -2.758,-0.689 -0.484,1.939 3.787,0.947 4.566,3.654 L 47.719,61 38,61 38,58.838 36.948,55.684 35.052,56.317 36,59.162 36,61 23,61 23,56.303 24.832,53.555 23.168,52.446 21,55.697 21,61 6.974,61 8.49,58.932 Z" /><path
       id="path8"
       d="m 46.667,25 c -0.646,0 -1.285,0.214 -1.8,0.601 L 41.4,28.2 l 1.199,1.6 3.468,-2.6 c 0.172,-0.129 0.385,-0.2 0.6,-0.2 L 47,27 c 0.552,0 1,0.448 1,1 0,0.552 -0.448,1 -1,1 l -1,0 0,2 1,0 c 1.654,0 3,-1.346 3,-3 0,-1.654 -1.346,-3 -3,-3 l -0.333,0 z" /><path
       id="path10"
       d="m 55.553,37.207 0.217,0.246 c 0.166,0.188 0.247,0.427 0.228,0.671 -0.019,0.248 -0.138,0.476 -0.335,0.641 -0.426,0.354 -1.062,0.305 -1.423,-0.104 l -0.649,-0.737 -1.5,1.322 0.648,0.736 c 0.59,0.671 1.428,1.016 2.27,1.016 0.686,0 1.375,-0.229 1.936,-0.697 0.615,-0.513 0.987,-1.231 1.048,-2.022 0.061,-0.787 -0.195,-1.55 -0.722,-2.146 l -0.215,-0.244 c -0.418,-0.477 -0.994,-0.814 -1.622,-0.951 l -4.221,-0.913 -0.424,1.955 4.22,0.913 c 0.212,0.044 0.404,0.156 0.544,0.314 z" /><path
       id="path12"
       d="m 17,31 1,0 0,-2 -1,0 c -0.552,0 -1,-0.448 -1,-1 0,-0.552 0.448,-1 1,-1 l 0.333,0 c 0.215,0 0.428,0.071 0.601,0.2 l 3.467,2.6 1.199,-1.6 -3.466,-2.6 C 18.618,25.214 17.979,25 17.333,25 L 17,25 c -1.654,0 -3,1.346 -3,3 0,1.654 1.346,3 3,3 z" /><path
       id="path14"
       d="m 8.993,40.997 c 0.842,0 1.679,-0.345 2.268,-1.015 l 0.649,-0.737 -1.5,-1.322 -0.65,0.738 C 9.399,39.07 8.763,39.118 8.338,38.765 8.141,38.6 8.022,38.372 8.003,38.124 7.983,37.88 8.065,37.642 8.231,37.453 L 8.45,37.205 c 0.138,-0.156 0.33,-0.269 0.542,-0.314 l 4.221,-0.913 -0.424,-1.955 -4.222,0.913 C 7.94,35.073 7.364,35.411 6.948,35.885 L 6.73,36.131 c -0.526,0.597 -0.782,1.359 -0.722,2.146 0.061,0.791 0.433,1.51 1.048,2.022 0.561,0.47 1.251,0.698 1.937,0.698 z" /></g></svg>