<?xml version="1.0" encoding="UTF-8" standalone="no"?>
<svg
   xmlns="http://www.w3.org/2000/svg"
   height="63"
   width="62"
   id="svg2"
   xml:space="preserve"
   viewBox="0 0 62 63"
   y="0px"
   x="0px"
   version="1.1">
    <g
     transform="translate(-1,0)"
     id="g4"><path
       id="path6"
       d="m 60,57 c -1.654,0 -3,1.346 -3,3 0,1.654 1.346,3 3,3 1.654,0 3,-1.346 3,-3 0,-1.654 -1.346,-3 -3,-3 z m 0,4 c -0.551,0 -1,-0.448 -1,-1 0,-0.552 0.449,-1 1,-1 0.551,0 1,0.448 1,1 0,0.552 -0.449,1 -1,1 z" /><path
       id="path8"
       d="M 7,3 C 7,1.346 5.654,0 4,0 2.346,0 1,1.346 1,3 1,4.654 2.346,6 4,6 5.654,6 7,4.654 7,3 Z M 3,3 C 3,2.449 3.449,2 4,2 4.551,2 5,2.449 5,3 5,3.551 4.551,4 4,4 3.449,4 3,3.551 3,3 Z" /><path
       id="path10"
       d="m 54.721,39.629 -1.975,-3.95 c 0.419,-0.85 0.778,-1.709 1.073,-2.564 L 58,31.721 58,20.279 53.819,18.885 C 53.525,18.03 53.165,17.171 52.746,16.321 l 1.977,-3.954 -8.09,-8.09 -3.954,1.977 C 41.829,5.835 40.97,5.475 40.115,5.181 L 38.721,1 27.279,1 25.885,5.181 C 25.03,5.475 24.171,5.835 23.321,6.254 l -3.954,-1.977 -8.09,8.09 1.977,3.954 c -0.419,0.85 -0.779,1.709 -1.073,2.564 L 8,20.279 8,31.72 l 4.181,1.394 c 0.292,0.849 0.647,1.7 1.062,2.543 L 11.957,38 6,38 l 0,20 7,0 0,-3 7.586,0 3,3 5.414,0 0,1 c 0,2.206 1.794,4 4,4 2.206,0 4,-1.794 4,-4 l 0,-1 7.001,0 c 1.654,0 3,-1.346 3,-3 0,-0.771 -0.301,-1.468 -0.78,-2 0.48,-0.532 0.78,-1.229 0.78,-2 0,-0.771 -0.301,-1.468 -0.78,-2 0.382,-0.424 0.643,-0.953 0.734,-1.543 l 7.766,-7.828 z m -39.46,-4.415 c -0.55,-1.057 -0.999,-2.131 -1.334,-3.191 L 13.773,31.537 10,30.279 l 0,-8.559 3.773,-1.257 0.153,-0.487 c 0.334,-1.059 0.783,-2.133 1.334,-3.19 l 0.235,-0.453 -1.785,-3.571 6.051,-6.051 3.571,1.785 0.453,-0.235 c 1.058,-0.551 2.131,-1 3.19,-1.334 L 27.462,6.774 28.721,3 l 8.559,0 1.257,3.773 0.487,0.153 c 1.059,0.334 2.133,0.783 3.19,1.334 l 0.453,0.235 3.571,-1.785 6.051,6.051 -1.785,3.571 0.235,0.453 c 0.551,1.058 1,2.131 1.334,3.19 l 0.153,0.487 3.774,1.259 0,8.559 -3.773,1.257 -0.154,0.486 c -0.335,1.06 -0.784,2.134 -1.334,3.191 l -0.235,0.453 1.787,3.573 -5.909,5.955 C 46.331,45.128 46.277,45.062 46.221,45 c 0.48,-0.532 0.78,-1.229 0.78,-2 0,-1.56 -1.201,-2.83 -2.724,-2.972 C 48.519,36.628 51,31.526 51,26 51,16.075 42.925,8 33,8 23.075,8 15,16.075 15,26 c 0,5.459 2.482,10.594 6.695,14 l -8.554,0 2.367,-4.312 -0.247,-0.474 z M 45.001,51 c 0,0.552 -0.449,1 -1,1 L 36,52 c -0.551,0 -1,-0.448 -1,-1 0,-0.552 0.449,-1 1,-1 l 8.001,0 c 0.551,0 1,0.448 1,1 z M 30.586,26 35.414,26 37,24.414 37,20 c 1.103,0 2,0.897 2,2 L 39,26.586 35.586,30 30.414,30 27,26.586 27,22 c 0,-1.103 0.897,-2 2,-2 l 0,4.414 1.586,1.586 z m 0.414,6 4,0 0,4 -4,0 0,-4 z m 6,-0.586 4,-4 L 41,22 c 0,-2.206 -1.794,-4 -4,-4 l -2,0 0,5.586 L 34.586,24 31.414,24 31,23.586 31,18 29,18 c -2.206,0 -4,1.794 -4,4 l 0,5.414 4,4 0,4.586 -2.414,0 -0.063,0.063 C 23.109,33.86 21,30.083 21,26 c 0,-6.617 5.383,-12 12,-12 6.617,0 12,5.383 12,12 0,4.053 -2.025,7.765 -5.414,10 L 37,36 37,31.414 Z M 47,26 c 0,-7.72 -6.28,-14 -14,-14 -7.72,0 -14,6.28 -14,14 0,4.619 2.298,8.92 6.067,11.519 l -1.44,1.44 C 19.474,35.951 17,31.137 17,26 c 0,-8.822 7.178,-16 16,-16 8.822,0 16,7.178 16,16 0,4.942 -2.234,9.502 -6.048,12.525 -0.114,-0.709 -0.476,-1.329 -0.996,-1.78 C 45.143,34.099 47,30.203 47,26 Z m -2.999,16 c 0.551,0 1,0.448 1,1 0,0.552 -0.449,1 -1,1 L 36,44 c -0.551,0 -1,-0.448 -1,-1 0,-0.552 0.449,-1 1,-1 l 4,0 4.001,0 z M 36,48 c -0.551,0 -1,-0.448 -1,-1 0,-0.552 0.449,-1 1,-1 l 8.001,0 c 0.551,0 1,0.448 1,1 0,0.552 -0.449,1 -1,1 L 36,48 Z m -25,8 -3,0 0,-16 3,0 0,16 z m 13.414,0 -3,-3 -8.414,0 0,-11 10.414,0 4,-4 L 40,38 c 0.551,0 1,0.448 1,1 0,0.552 -0.449,1 -1,1 l -4,0 -6.414,0 -4.293,4.293 1.414,1.414 L 29,43.414 29,56 24.414,56 Z M 33,61 c -1.103,0 -2,-0.897 -2,-2 l 0,-17 2.184,0 C 33.072,42.314 33,42.648 33,43 c 0,0.771 0.301,1.468 0.78,2 -0.48,0.532 -0.78,1.229 -0.78,2 0,0.771 0.301,1.468 0.78,2 -0.48,0.532 -0.78,1.229 -0.78,2 0,0.771 0.301,1.468 0.78,2 -0.48,0.532 -0.78,1.229 -0.78,2 0,1.302 0.839,2.402 2,2.816 L 35,59 c 0,1.103 -0.897,2 -2,2 z M 44.001,56 36,56 c -0.551,0 -1,-0.448 -1,-1 0,-0.552 0.449,-1 1,-1 l 8.001,0 c 0.551,0 1,0.448 1,1 0,0.552 -0.449,1 -1,1 z" /><rect
       id="rect12"
       height="2"
       width="2"
       y="9"
       x="3" /><rect
       id="rect14"
       height="2"
       width="2"
       y="14"
       x="3" /><rect
       id="rect16"
       height="2"
       width="2"
       y="19"
       x="3" /><rect
       id="rect18"
       height="2"
       width="2"
       y="42"
       x="59" /><rect
       id="rect20"
       height="2"
       width="2"
       y="47"
       x="59" /><rect
       id="rect22"
       height="2"
       width="2"
       y="52"
       x="59" /></g></svg>