<svg xmlns="http://www.w3.org/2000/svg" viewBox="0 0 100 125" x="0px" y="0px">
    <path d="m58.9377 73.437547c0-.383885-.144609-.769609-.4375-1.0625l-7.4375-7.4375c-.271447-.271447-.648286-.4375-1.0625-.4375-.414213 0-.791053.166053-1.0625.4375l-7.4375 7.4375c-.292891.292891-.4375.678615-.4375 1.0625-.000001.383883.144607.738356.4375 1.03125.292893.292893.678617.468751 1.0625.46875.383885 0 .768669-.176803 1.0625-.46875l4.875-4.84375v23.875156c0 .828427.671573 1.5 1.5 1.5.828426 0 1.5-.671573 1.5-1.5v-23.875156l4.875 4.84375c.293831.291947.678615.46875 1.0625.46875.383883.000001.769607-.175857 1.0625-.46875.292893-.292894.437501-.647367.4375-1.03125z"
          stroke-width="3"/>
    <path d="m58.9377 26.562047c0 .383885-.144609.769609-.4375 1.0625l-7.4375 7.4375c-.271447.271447-.648286.4375-1.0625.4375-.414213 0-.791053-.166053-1.0625-.4375l-7.4375-7.4375c-.292891-.292891-.4375-.678615-.4375-1.0625-.000001-.383883.144607-.738356.4375-1.03125.292893-.292893.678617-.468751 1.0625-.46875.383885 0 .768669.176803 1.0625.46875l4.875 4.84375v-23.87475c0-.828427.671573-1.5 1.5-1.5.828426 0 1.5.671573 1.5 1.5v23.87475l4.875-4.84375c.293831-.291947.678615-.46875 1.0625-.46875.383883-.000001.769607.175857 1.0625.46875.292893.292894.437501.647367.4375 1.03125z"
          stroke-width="3"/>
    <path d="m72.2502 54.75c.82842 0 1.5-.671574 1.5-1.500001 0-.828426-.67158-1.5-1.5-1.5h-44.5c-.82843 0-1.5.671574-1.5 1.5 0 .828427.67157 1.500001 1.5 1.500001z"
          stroke-width="3"/>
    <path d="m72.2502 45.249999c.82842 0 1.5.671574 1.5 1.500001 0 .828426-.67158 1.5-1.5 1.5h-44.5c-.82843 0-1.5-.671574-1.5-1.5 0-.828427.67157-1.500001 1.5-1.500001z"
          stroke-width="3"/>
    <path d="m72.2502 38.749999c.82842 0 1.5.671574 1.5 1.500001 0 .828426-.67158 1.5-1.5 1.5h-44.5c-.82843 0-1.5-.671574-1.5-1.5 0-.828427.67157-1.500001 1.5-1.500001z"
          stroke-width="3"/>
    <path d="m72.2502 61.25c.82842 0 1.5-.671574 1.5-1.500001 0-.828426-.67158-1.5-1.5-1.5h-44.5c-.82843 0-1.5.671574-1.5 1.5 0 .828427.67157 1.500001 1.5 1.500001z"
          stroke-width="3"/>
</svg>