<?xml version="1.0" encoding="UTF-8" standalone="no"?>
<svg
        xmlns:dc="http://purl.org/dc/elements/1.1/"
        xmlns:cc="http://creativecommons.org/ns#"
        xmlns:rdf="http://www.w3.org/1999/02/22-rdf-syntax-ns#"
        xmlns="http://www.w3.org/2000/svg"
        id="svg6"
        version="1.1"
        y="0px"
        x="0px"
        viewBox="0 0 90.000003 90.000003">
    <metadata
            id="metadata12">
        <rdf:RDF>
            <cc:Work
                    rdf:about="">
                <dc:format>image/svg+xml</dc:format>
                <dc:type
                        rdf:resource="http://purl.org/dc/dcmitype/StillImage"/>
                <dc:title></dc:title>
            </cc:Work>
        </rdf:RDF>
    </metadata>
    <defs
            id="defs10"/>
    <path
            id="path2"
            d="M 45,0 C 20.14719,0 0,20.147187 0,45 0,69.852813 20.14719,90 45,90 69.85281,90 90,69.852813 90,45 90,20.147187 69.85281,0 45,0 Z m 0,3 C 68.19596,3 87,21.804041 87,45 87,68.195959 68.19596,87 45,87 21.80404,87 3,68.195959 3,45 3,21.804041 21.80404,3 45,3 Z"/>
    <path
            id="path4"
            d="m 17.9375,36.0625 c -0.383885,0 -0.769609,0.144609 -1.0625,0.4375 L 9.4375,43.9375 C 9.166053,44.208947 9,44.585786 9,45 c 0,0.414213 0.166053,0.791053 0.4375,1.0625 L 16.875,53.5 c 0.292891,0.292891 0.678615,0.4375 1.0625,0.4375 0.383883,10e-7 0.738356,-0.144607 1.03125,-0.4375 0.292893,-0.292893 0.468751,-0.678617 0.46875,-1.0625 0,-0.383885 -0.176803,-0.768669 -0.46875,-1.0625 L 14.125,46.5 h 61.75 l -4.84375,4.875 c -0.291947,0.293831 -0.46875,0.678615 -0.46875,1.0625 -10e-7,0.383883 0.175857,0.769607 0.46875,1.0625 0.292894,0.292893 0.647367,0.437501 1.03125,0.4375 0.383885,0 0.769609,-0.144609 1.0625,-0.4375 l 7.4375,-7.4375 C 80.833947,45.791053 81,45.414213 81,45 81,44.585786 80.833947,44.208947 80.5625,43.9375 L 73.125,36.5 c -0.292891,-0.292891 -0.678615,-0.4375 -1.0625,-0.4375 -0.383883,-10e-7 -0.738356,0.144607 -1.03125,0.4375 -0.292893,0.292893 -0.468751,0.678617 -0.46875,1.0625 0,0.383885 0.176803,0.768669 0.46875,1.0625 L 75.875,43.5 h -61.75 l 4.84375,-4.875 c 0.291947,-0.293831 0.46875,-0.678615 0.46875,-1.0625 1e-6,-0.383883 -0.175857,-0.769607 -0.46875,-1.0625 -0.292894,-0.292893 -0.647367,-0.437501 -1.03125,-0.4375 z"/>
</svg>
