<?xml version="1.0" encoding="UTF-8" standalone="no"?>
<svg
   xmlns:dc="http://purl.org/dc/elements/1.1/"
   xmlns:cc="http://creativecommons.org/ns#"
   xmlns:rdf="http://www.w3.org/1999/02/22-rdf-syntax-ns#"
   xmlns="http://www.w3.org/2000/svg"
   height="62"
   width="62"
   id="svg2"
   xml:space="preserve"
   viewBox="0 0 62 62"
   y="0px"
   x="0px"
   version="1.1"><metadata
     id="metadata26"><rdf:RDF><cc:Work
         rdf:about=""><dc:format>image/svg+xml</dc:format><dc:type
           rdf:resource="http://purl.org/dc/dcmitype/StillImage" /><dc:title></dc:title></cc:Work></rdf:RDF></metadata><defs
     id="defs24" /><g
     transform="translate(-1,-1)"
     id="g4"><path
       id="path6"
       d="m 33.547,45.443 c 0.238,-0.43 0.386,-0.917 0.386,-1.443 0,-1.086 -0.586,-2.03 -1.453,-2.557 0.239,-0.43 0.386,-0.917 0.386,-1.443 0,-1.654 -1.346,-3 -3,-3 L 6.133,37 c -1.654,0 -3,1.346 -3,3 0,0.526 0.148,1.013 0.386,1.443 -0.866,0.526 -1.452,1.471 -1.452,2.557 0,0.526 0.148,1.013 0.386,1.443 C 1.586,45.969 1,46.914 1,48 1,48.771 1.301,49.468 1.78,50 1.301,50.532 1,51.229 1,52 c 0,1.086 0.586,2.031 1.453,2.557 -0.238,0.43 -0.386,0.917 -0.386,1.443 0,1.086 0.586,2.03 1.453,2.557 -0.239,0.43 -0.387,0.917 -0.387,1.443 0,1.654 1.346,3 3,3 l 23.733,0 c 1.654,0 3,-1.346 3,-3 0,-0.526 -0.148,-1.013 -0.386,-1.443 0.867,-0.527 1.453,-1.471 1.453,-2.557 0,-0.526 -0.148,-1.013 -0.386,-1.443 C 34.414,54.031 35,53.086 35,52 35,51.229 34.699,50.532 34.22,50 34.7,49.468 35,48.771 35,48 35,46.914 34.414,45.969 33.547,45.443 Z M 33,52 c 0,0.552 -0.449,1 -1,1 L 30.933,53 5.067,53 4,53 C 3.449,53 3,52.552 3,52 3,51.448 3.449,51 4,51 l 28,0 c 0.551,0 1,0.448 1,1 z m -1.067,4 c 0,0.552 -0.449,1 -1,1 l -1.066,0 -23.734,0 -1.066,0 c -0.551,0 -1,-0.448 -1,-1 0,-0.552 0.449,-1 1,-1 l 25.866,0 c 0.551,0 1,0.448 1,1 z M 4,49 C 3.449,49 3,48.552 3,48 3,47.448 3.449,47 4,47 l 1.067,0 25.866,0 1.067,0 c 0.551,0 1,0.448 1,1 0,0.552 -0.449,1 -1,1 L 4,49 Z m 0.067,-5 c 0,-0.552 0.449,-1 1,-1 l 1.066,0 23.733,0 1.066,0 c 0.551,0 1,0.448 1,1 0,0.552 -0.449,1 -1,1 L 5.067,45 c -0.551,0 -1,-0.448 -1,-1 z m 2.066,-5 23.733,0 c 0.551,0 1,0.448 1,1 0,0.552 -0.449,1 -1,1 L 6.133,41 c -0.551,0 -1,-0.448 -1,-1 0,-0.552 0.449,-1 1,-1 z M 29.867,61 6.133,61 c -0.551,0 -1,-0.448 -1,-1 0,-0.552 0.449,-1 1,-1 l 23.733,0 c 0.551,0 1,0.448 1,1 0,0.552 -0.448,1 -0.999,1 z" /><path
       id="path8"
       d="m 11,33 14,0 0,2 2,0 0,-4 -5,0 0,-3 5,0 0,-6 -5,0 0,-13 10,0 0,8 2,0 0,-1 4,0 0,1 2,0 0,-11 C 40,3.243 37.757,1 35,1 L 19,1 c -2.757,0 -5,2.243 -5,5 l 0,16 -5,0 0,6 5,0 0,3 -5,0 0,4 2,0 0,-2 z M 20,9.618 20,10 l -4,0 0,-2.382 4,2 z m 18,-2 0,2.382 -4,0 0,-0.382 4,-2 z M 31.382,7 30,7 l 0,-4 3.382,0 -2,4 z M 28,7 l -2,0 0,-4 2,0 0,4 z m -4,0 -1.382,0 -2,-4 3.382,0 0,4 z m -4,7 -4,0 0,-2 4,0 0,2 z m -4,2 4,0 0,2 -4,0 0,-2 z m 18,-2 0,-2 4,0 0,2 -4,0 z M 37.941,5.412 33.466,7.65 C 33.429,7.61 33.391,7.572 33.351,7.535 L 35.589,3.06 c 1.182,0.236 2.115,1.169 2.352,2.352 z M 18.412,3.059 20.65,7.534 C 20.61,7.571 20.572,7.609 20.535,7.649 L 16.06,5.411 C 16.296,4.229 17.229,3.296 18.412,3.059 Z M 16,20 l 4,0 0,2 -4,0 0,-2 z m -5,4 14,0 0,2 -14,0 0,-2 z m 5,4 4,0 0,3 -4,0 0,-3 z" /><path
       id="path10"
       d="m 63,9 0,-8 -9,0 c -2.757,0 -5,2.243 -5,5 l 0,9 -2,0 0,4 -18,0 0,16 2,0 0,-14 30,0 0,26 -24,0 0,2 1,0 0,4 4,0 0,10 8,0 0,-10 4,0 0,-4 9,0 0,-30 -4,0 0,-4 -2,0 0,-6 6,0 z m -19,52 0,-4 4,0 0,4 -4,0 z m 4,-6 -4,0 0,-2 4,0 0,2 z m 4,-4 -12,0 0,-2 12,0 0,2 z m -1,-43.382 4,2 0,0.382 -4,0 0,-2.382 z M 61,7 57.618,7 55.618,3 61,3 61,7 Z M 53.412,3.059 55.65,7.534 C 55.61,7.571 55.572,7.609 55.535,7.649 L 51.06,5.411 C 51.296,4.229 52.229,3.296 53.412,3.059 Z M 49,19 l 0,-2 8,0 0,2 -8,0 z m 2,-4 0,-3 4,0 0,3 -4,0 z" /><path
       id="path12"
       d="m 45,23 -12,0 0,8 12,0 0,-8 z m -2,6 -8,0 0,-4 8,0 0,4 z" /><path
       id="path14"
       d="m 59,29 c 0,-3.309 -2.691,-6 -6,-6 -3.309,0 -6,2.691 -6,6 l 0,2 12,0 0,-2 z m -10,0 c 0,-2.206 1.794,-4 4,-4 2.206,0 4,1.794 4,4 l -8,0 z" /><path
       id="path16"
       d="m 56,35 -20,0 0,10 20,0 0,-10 z m -2,2 0,2 -16,0 0,-2 16,0 z m -16,6 0,-2 16,0 0,2 -16,0 z" /></g></svg>