<?xml version="1.0" encoding="UTF-8" standalone="no"?>
<svg
   xmlns:dc="http://purl.org/dc/elements/1.1/"
   xmlns:cc="http://creativecommons.org/ns#"
   xmlns:rdf="http://www.w3.org/1999/02/22-rdf-syntax-ns#"
   xmlns="http://www.w3.org/2000/svg"
   height="97.082298"
   width="97.086349"
   id="svg2"
   xml:space="preserve"
   enable-background="new 0 0 100 100"
   viewBox="0 0 97.086349 97.082298"
   y="0px"
   x="0px"
   version="1.1"><metadata
     id="metadata14"><rdf:RDF><cc:Work
         rdf:about=""><dc:format>image/svg+xml</dc:format><dc:type
           rdf:resource="http://purl.org/dc/dcmitype/StillImage" /><dc:title></dc:title></cc:Work></rdf:RDF></metadata><defs
     id="defs12" /><path
     style="fill:#2f3050;fill-opacity:1;stroke:none;stroke-opacity:1"
     id="path4"
     d="m 9.7,45.282299 c -3.2,-0.3 -6.3,-0.6 -9.7,-0.8 2,-16.4 9.6,-29.1 23.7,-37.5000002 14.6,-8.7 29.8,-9 45.4,-2.4 -1.4,3 -2.8,5.9000002 -4.1,8.8000002 -26.2,-11.9000002 -53.6,7.1 -55.3,31.9 z m 77.2,-3.4 c 1.7,11.3 -0.6,21.6 -7.6,30.5 -6.9,8.9 -16.1,13.8 -27.4,15 0.3,3.2 0.5,6.3 0.8,9.4 23.6,-0.8 48.9,-24.5 43.7,-56.7 -3.1,0.7 -6.2,1.2 -9.5,1.8 z m -77.3,10.2 c -3,0.3 -6.1,0.5 -9.3,0.8 0.7,19.8 18,42.1 44,44.2 0.3,-3.2 0.6,-6.3 0.8,-9.4 -20.3,-3.4 -32.1,-15.2 -35.5,-35.6 z m 75.5,-16.7 c 3,-1.1 6,-2.2 9.1,-3.3 -3.6,-9.6 -9.5,-17.2 -17.8,-23.2000002 -1.9,2.6000002 -3.7,5.2000002 -5.6,7.9000002 3.2,2.4 6.1,5 8.5,8.2 2.5,3.1 4.4,6.5 5.8,10.4 z m -67.6,13.4 c -11.6666667,32.2 -5.833333,16.1 0,0 z" /></svg>