<?xml version="1.0" encoding="UTF-8" standalone="no"?>
<svg
   xmlns:dc="http://purl.org/dc/elements/1.1/"
   xmlns:cc="http://creativecommons.org/ns#"
   xmlns:rdf="http://www.w3.org/1999/02/22-rdf-syntax-ns#"
   xmlns="http://www.w3.org/2000/svg"
   version="1.1"
   x="0px"
   y="0px"
   viewBox="0 0 97.086349 97.082298"
   enable-background="new 0 0 100 100"
   xml:space="preserve"
   id="svg2"
   width="97.086349"
   height="97.082298"><metadata
     id="metadata14"><rdf:RDF><cc:Work
         rdf:about=""><dc:format>image/svg+xml</dc:format><dc:type
           rdf:resource="http://purl.org/dc/dcmitype/StillImage" /><dc:title></dc:title></cc:Work></rdf:RDF></metadata><defs
     id="defs12" /><path
     d="m 9.7000013,45.282299 c -3.2,-0.3 -6.3,-0.6 -9.7000000220512,-0.8 C 2.0000013,28.082299 9.6000013,15.382299 23.700001,6.9822984 c 14.6,-8.7 29.8,-9 45.4,-2.4 -1.4,3 -2.8,5.9000006 -4.1,8.8000006 -26.2,-11.9000006 -53.6,7.1 -55.2999997,31.9 z m 77.1999997,-3.4 c 1.7,11.3 -0.6,21.6 -7.6,30.5 -6.9,8.9 -16.1,13.8 -27.4,15 0.3,3.2 0.5,6.3 0.8,9.4 23.6,-0.8 48.899999,-24.5 43.7,-56.7 -3.1,0.7 -6.2,1.2 -9.5,1.8 z m -77.2999997,10.2 c -3,0.3 -6.1,0.5 -9.30000002,0.8 0.70000002,19.8 17.99999972,42.1 43.99999972,44.2 0.3,-3.2 0.6,-6.3 0.8,-9.4 -20.3,-3.4 -32.1,-15.2 -35.4999997,-35.6 z m 75.4999997,-16.7 c 3,-1.1 6,-2.2 9.1,-3.3 -3.6,-9.6 -9.5,-17.2 -17.8,-23.2000006 -1.9,2.6000006 -3.7,5.2000006 -5.6,7.9000006 3.2,2.4 6.1,5 8.5,8.2 2.5,3.1 4.4,6.5 5.8,10.4 z"
     id="path4"
     style="fill:#ff4e00;fill-opacity:1;stroke:none;stroke-opacity:1" /><path
     style="fill:#ff4e00;fill-opacity:1;stroke:none;stroke-opacity:1"
     id="path4222"
     d="m 48.543175,79.641149 c -17.2,0 -31.1,-14 -31.1,-31.099999 0,-17.2 14,-31.1 31.1,-31.1 17.2,0 31.1,14 31.1,31.1 0,17.099999 -13.9,31.099999 -31.1,31.099999 z m 15,-37.699999 -5.7,-5.7 -13.1,13 -5.5,-5.5 -5.7,5.7 5.5,5.499999 5.7,5.7 5.7,-5.7 z" /></svg>