<?xml version="1.0" encoding="UTF-8" standalone="no"?>
<svg
        id="svg22"
        version="1.1"
        y="0px"
        x="0px"
        viewBox="0 0 60.365498 90">
    <metadata
            id="metadata28">
        <rdf:RDF>
            <cc:Work
                    rdf:about="">
                <dc:format>image/svg+xml</dc:format>
                <dc:type
                        rdf:resource="http://purl.org/dc/dcmitype/StillImage"/>
                <dc:title></dc:title>
            </cc:Work>
        </rdf:RDF>
    </metadata>
    <defs
            id="defs26"/>
    <path
            style="stroke-width:3"
            id="path2"
            d="m 21.61187,16.288995 c 0,0.368157 0.138685,0.738078 0.419576,1.018969 l 7.132788,7.132788 c 0.260325,0.260326 0.621725,0.419575 1.018969,0.419575 0.397242,0 0.758644,-0.159249 1.01897,-0.419575 l 7.132786,-7.132788 c 0.280891,-0.280891 0.419576,-0.650812 0.419576,-1.018969 1e-6,-0.368156 -0.138682,-0.708106 -0.419576,-0.989 -0.280893,-0.280893 -0.650814,-0.449547 -1.018969,-0.449546 -0.368157,0 -0.737177,0.16956 -1.01897,0.449546 l -4.675272,4.645303 V 1.4385458 C 31.621748,0.6440588 30.97769,0 30.183203,0 29.388718,0 28.744658,0.6440588 28.744658,1.4385458 V 19.945298 l -4.675273,-4.645303 c -0.281792,-0.279986 -0.650812,-0.449546 -1.018969,-0.449546 -0.368156,-10e-7 -0.738077,0.168653 -1.01897,0.449546 -0.280893,0.280894 -0.419577,0.620844 -0.419576,0.989 z"/>
    <path
            style="stroke-width:3"
            id="path4"
            d="m 6.372597,34.210917 c -0.79448,0 -1.438546,0.64406 -1.438546,1.438547 0,0.794485 0.644066,1.438545 1.438546,1.438545 h 47.621211 c 0.794491,0 1.438546,-0.64406 1.438546,-1.438545 0,-0.794487 -0.644055,-1.438547 -1.438546,-1.438547 z"/>
    <path
            style="stroke-width:3"
            id="path6"
            d="M 1.438545,43.321705 C 0.644065,43.321705 0,42.677645 0,41.883159 0,41.088673 0.644065,40.444614 1.438545,40.444614 h 57.488407 c 0.794489,0 1.438545,0.644059 1.438545,1.438545 0,0.794486 -0.644056,1.438546 -1.438545,1.438546 z"/>
    <path
            style="stroke-width:3"
            id="path8"
            d="m 19.255623,27.977221 c -0.794481,0 -1.438546,0.644059 -1.438546,1.438546 0,0.794485 0.644065,1.438545 1.438546,1.438545 h 21.855242 c 0.794489,0 1.438544,-0.64406 1.438544,-1.438545 0,-0.794487 -0.644055,-1.438546 -1.438544,-1.438546 z"/>
    <path
            style="stroke-width:3"
            id="path10"
            d="M 1.438545,49.555402 C 0.644065,49.555402 0,48.911342 0,48.116856 0,47.32237 0.644065,46.67831 1.438545,46.67831 h 57.488407 c 0.794489,0 1.438545,0.64406 1.438545,1.438546 0,0.794486 -0.644056,1.438546 -1.438545,1.438546 z"/>
    <path
            style="stroke-width:3"
            id="path12"
            d="m 21.61187,73.711403 c 0,-0.368148 0.13868,-0.73807 0.419576,-1.018966 l 7.132788,-7.132789 c 0.260325,-0.260322 0.621725,-0.419572 1.018969,-0.419572 0.397242,0 0.758644,0.15925 1.01897,0.419572 l 7.132786,7.132789 c 0.280896,0.280896 0.419576,0.650818 0.419576,1.018966 1e-6,0.368163 -0.138685,0.708108 -0.419576,0.989 -0.280895,0.280898 -0.650814,0.44955 -1.018969,0.449546 -0.368157,-4e-6 -0.737177,-0.169557 -1.01897,-0.449546 l -4.675272,-4.645301 v 18.506354 c 0,0.794491 -0.644058,1.438546 -1.438545,1.438546 -0.794485,0 -1.438545,-0.644055 -1.438545,-1.438546 V 70.055102 c 0,0 -3.116857,3.096859 -4.675273,4.645301 -0.281792,0.279989 -0.650812,0.449542 -1.018969,0.449546 -0.368156,4e-6 -0.738075,-0.168648 -1.01897,-0.449546 -0.280891,-0.280892 -0.419577,-0.620837 -0.419576,-0.989 z"/>
    <path
            style="stroke-width:3"
            id="path14"
            d="m 6.3726,55.789098 c -0.794479,0 -1.438545,-0.64406 -1.438545,-1.438546 0,-0.794486 0.644066,-1.438545 1.438545,-1.438545 h 47.621208 c 0.794491,0 1.438546,0.644059 1.438546,1.438545 0,0.794486 -0.644055,1.438546 -1.438546,1.438546 z"/>
    <path
            style="stroke-width:3"
            id="path16"
            d="m 19.255623,62.022795 c -0.794481,0 -1.438546,-0.64406 -1.438546,-1.438546 0,-0.794486 0.644065,-1.438546 1.438546,-1.438546 h 21.855242 c 0.794489,0 1.438544,0.64406 1.438544,1.438546 0,0.794486 -0.644055,1.438546 -1.438544,1.438546 z"/>
</svg>
