<?xml version="1.0" encoding="UTF-8" standalone="no"?>
<svg
        xmlns:dc="http://purl.org/dc/elements/1.1/"
        xmlns:cc="http://creativecommons.org/ns#"
        xmlns:rdf="http://www.w3.org/1999/02/22-rdf-syntax-ns#"
        xmlns="http://www.w3.org/2000/svg"
        height="47.5"
        width="90.000404"
        id="svg14"
        version="1.1"
        y="0px"
        x="0px"
        viewBox="0 0 90.000404 47.5">
    <metadata
            id="metadata20">
        <rdf:RDF>
            <cc:Work
                    rdf:about="">
                <dc:format>image/svg+xml</dc:format>
                <dc:type
                        rdf:resource="http://purl.org/dc/dcmitype/StillImage"/>
                <dc:title></dc:title>
            </cc:Work>
        </rdf:RDF>
    </metadata>
    <defs
            id="defs18"/>
    <path
            style="stroke-width:6"
            id="path2"
            d="m 21.562656,32.6875 c 0.383885,0 0.769609,-0.144609 1.0625,-0.4375 l 7.4375,-7.4375 c 0.271447,-0.271447 0.4375,-0.648286 0.4375,-1.0625 0,-0.414213 -0.166053,-0.791053 -0.4375,-1.0625 l -7.4375,-7.4375 c -0.292891,-0.292891 -0.678615,-0.4375 -1.0625,-0.4375 -0.383883,-10e-7 -0.738356,0.144607 -1.03125,0.4375 -0.292893,0.292893 -0.468751,0.678617 -0.46875,1.0625 0,0.383885 0.176803,0.768669 0.46875,1.0625 l 4.84375,4.875 H 1.5 c -0.828427,0 -1.5,0.671573 -1.5,1.5 0,0.828426 0.671573,1.5 1.5,1.5 h 23.875156 l -4.84375,4.875 c -0.291947,0.293831 -0.46875,0.678615 -0.46875,1.0625 -1e-6,0.383883 0.175857,0.769607 0.46875,1.0625 0.292894,0.292893 0.647367,0.437501 1.03125,0.4375 z"/>
    <path
            style="stroke-width:6"
            id="path4"
            d="m 68.438156,32.6875 c -0.383885,0 -0.769609,-0.144609 -1.0625,-0.4375 l -7.4375,-7.4375 c -0.271447,-0.271447 -0.4375,-0.648286 -0.4375,-1.0625 0,-0.414213 0.166053,-0.791053 0.4375,-1.0625 l 7.4375,-7.4375 c 0.292891,-0.292891 0.678615,-0.4375 1.0625,-0.4375 0.383883,-10e-7 0.738356,0.144607 1.03125,0.4375 0.292893,0.292893 0.468751,0.678617 0.46875,1.0625 0,0.383885 -0.176803,0.768669 -0.46875,1.0625 l -4.84375,4.875 h 23.87475 c 0.828427,0 1.5,0.671573 1.5,1.5 0,0.828426 -0.671573,1.5 -1.5,1.5 h -23.87475 l 4.84375,4.875 c 0.291947,0.293831 0.46875,0.678615 0.46875,1.0625 10e-7,0.383883 -0.175857,0.769607 -0.46875,1.0625 -0.292894,0.292893 -0.647367,0.437501 -1.03125,0.4375 z"/>
    <path
            style="stroke-width:6"
            id="path6"
            d="m 40.250203,46 c 0,0.82842 0.671574,1.5 1.500001,1.5 0.828426,0 1.5,-0.67158 1.5,-1.5 V 1.5 c 0,-0.82843 -0.671574,-1.5 -1.5,-1.5 -0.828427,0 -1.500001,0.67157 -1.500001,1.5 z"/>
    <path
            style="stroke-width:6"
            id="path8"
            d="m 49.750204,46 c 0,0.82842 -0.671574,1.5 -1.500001,1.5 -0.828426,0 -1.5,-0.67158 -1.5,-1.5 V 1.5 c 0,-0.82843 0.671574,-1.5 1.5,-1.5 0.828427,0 1.500001,0.67157 1.500001,1.5 z"/>
    <path
            style="stroke-width:6"
            id="path10"
            d="m 56.250204,46 c 0,0.82842 -0.671574,1.5 -1.500001,1.5 -0.828426,0 -1.5,-0.67158 -1.5,-1.5 V 1.5 c 0,-0.82843 0.671574,-1.5 1.5,-1.5 0.828427,0 1.500001,0.67157 1.500001,1.5 z"/>
    <path
            style="stroke-width:6"
            id="path12"
            d="m 33.750203,46 c 0,0.82842 0.671574,1.5 1.500001,1.5 0.828426,0 1.5,-0.67158 1.5,-1.5 V 1.5 c 0,-0.82843 -0.671574,-1.5 -1.5,-1.5 -0.828427,0 -1.500001,0.67157 -1.500001,1.5 z"/>
</svg>
