<svg xmlns="http://www.w3.org/2000/svg" viewBox="0 0 30 30">
    <g fill="none" stroke="#000" stroke-linecap="round">
        <g stroke-width="1.7">
            <path d="M11.051 7.784s-1.36.781-.917 1.956c.385 1.02 2.168 1.85 1.768 3.414-.196.767-.917 1.248-.917 1.248M15.073 7.784s-1.36.781-.917 1.956c.384 1.02 2.167 1.85 1.768 3.414-.196.767-.917 1.248-.917 1.248M19.094 7.784s-1.36.781-.917 1.956c.385 1.02 2.168 1.85 1.768 3.414-.196.767-.917 1.248-.917 1.248"/>
        </g>
        <path d="M9.078 20.508h11.896" stroke-width="1.664"/>
        <path d="M6.65 18.28h16.751" stroke-width="1.265"/>
    </g>
</svg>